 <svg xmlns="http://www.w3.org/2000/svg" width="20" height="20" viewBox="0 0 20 20" fill="none">
                      <path fill-rule="evenodd" clip-rule="evenodd"
                        d="M8.3335 15C8.3335 15.9166 9.0835 16.6666 10.0002 16.6666C10.9168 16.6666 11.6668 15.9166 11.6668 15C11.6668 14.0833 10.9168 13.3333 10.0002 13.3333C9.0835 13.3333 8.3335 14.0833 8.3335 15ZM8.3335 4.99996C8.3335 5.91663 9.0835 6.66663 10.0002 6.66663C10.9168 6.66663 11.6668 5.91663 11.6668 4.99996C11.6668 4.08329 10.9168 3.33329 10.0002 3.33329C9.0835 3.33329 8.3335 4.08329 8.3335 4.99996ZM8.3335 9.99996C8.3335 10.9166 9.0835 11.6666 10.0002 11.6666C10.9168 11.6666 11.6668 10.9166 11.6668 9.99996C11.6668 9.08329 10.9168 8.33329 10.0002 8.33329C9.0835 8.33329 8.3335 9.08329 8.3335 9.99996Z"
                        fill="#6C757D" />
                    </svg>