<svg xmlns="http://www.w3.org/2000/svg" width="25" height="25" viewBox="0 0 25 25" fill="none">
<path d="M8.72852 21.2313H20.7285C21.2589 21.2313 21.7677 21.0206 22.1427 20.6455C22.5178 20.2705 22.7285 19.7618 22.7285 19.2313V17.2313H10.7285V19.2313C10.7285 19.7618 10.5178 20.2705 10.1427 20.6455C9.76766 21.0206 9.25895 21.2313 8.72852 21.2313ZM8.72852 21.2313C8.19808 21.2313 7.68937 21.0206 7.3143 20.6455C6.93923 20.2705 6.72852 19.7618 6.72852 19.2313V5.23132C6.72852 4.70089 6.5178 4.19218 6.14273 3.81711C5.76766 3.44204 5.25895 3.23132 4.72852 3.23132C4.19808 3.23132 3.68937 3.44204 3.3143 3.81711C2.93923 4.19218 2.72852 4.70089 2.72852 5.23132V8.23132H6.72852" stroke="#fff" stroke-width="1.5" stroke-linecap="round" stroke-linejoin="round"/>
<path d="M19.7285 17.2313V5.23132C19.7285 4.70089 19.5178 4.19218 19.1427 3.81711C18.7677 3.44204 18.2589 3.23132 17.7285 3.23132H4.72852" stroke="#fff" stroke-width="1.5" stroke-linecap="round" stroke-linejoin="round"/>
</svg>