<svg xmlns="http://www.w3.org/2000/svg" width="25" height="25" viewBox="0 0 25 25" fill="none">
<path d="M3.72852 3.23132V21.2313H21.7285" stroke="#fff" stroke-width="1.5" stroke-linecap="round" stroke-linejoin="round"/>
<path d="M18.7285 5.23132H8.72852C8.17623 5.23132 7.72852 5.67904 7.72852 6.23132V8.23132C7.72852 8.78361 8.17623 9.23132 8.72852 9.23132H18.7285C19.2808 9.23132 19.7285 8.78361 19.7285 8.23132V6.23132C19.7285 5.67904 19.2808 5.23132 18.7285 5.23132Z" stroke="#fff" stroke-width="1.5" stroke-linecap="round" stroke-linejoin="round"/>
<path d="M13.7285 13.2313H8.72852C8.17623 13.2313 7.72852 13.679 7.72852 14.2313V16.2313C7.72852 16.7836 8.17623 17.2313 8.72852 17.2313H13.7285C14.2808 17.2313 14.7285 16.7836 14.7285 16.2313V14.2313C14.7285 13.679 14.2808 13.2313 13.7285 13.2313Z" stroke="#fff" stroke-width="1.5" stroke-linecap="round" stroke-linejoin="round"/>
</svg>