<svg xmlns="http://www.w3.org/2000/svg" width="25" height="25" viewBox="0 0 25 25" fill="none">
<path d="M12.7285 6.23132C13.2808 6.23132 13.7285 5.78361 13.7285 5.23132C13.7285 4.67904 13.2808 4.23132 12.7285 4.23132C12.1762 4.23132 11.7285 4.67904 11.7285 5.23132C11.7285 5.78361 12.1762 6.23132 12.7285 6.23132Z" stroke="#98A2B3" stroke-width="2" stroke-linecap="round" stroke-linejoin="round"/>
<path d="M19.7285 6.23132C20.2808 6.23132 20.7285 5.78361 20.7285 5.23132C20.7285 4.67904 20.2808 4.23132 19.7285 4.23132C19.1762 4.23132 18.7285 4.67904 18.7285 5.23132C18.7285 5.78361 19.1762 6.23132 19.7285 6.23132Z" stroke="#98A2B3" stroke-width="2" stroke-linecap="round" stroke-linejoin="round"/>
<path d="M5.72852 6.23132C6.2808 6.23132 6.72852 5.78361 6.72852 5.23132C6.72852 4.67904 6.2808 4.23132 5.72852 4.23132C5.17623 4.23132 4.72852 4.67904 4.72852 5.23132C4.72852 5.78361 5.17623 6.23132 5.72852 6.23132Z" stroke="#98A2B3" stroke-width="2" stroke-linecap="round" stroke-linejoin="round"/>
<path d="M12.7285 13.2313C13.2808 13.2313 13.7285 12.7836 13.7285 12.2313C13.7285 11.679 13.2808 11.2313 12.7285 11.2313C12.1762 11.2313 11.7285 11.679 11.7285 12.2313C11.7285 12.7836 12.1762 13.2313 12.7285 13.2313Z" stroke="#98A2B3" stroke-width="2" stroke-linecap="round" stroke-linejoin="round"/>
<path d="M19.7285 13.2313C20.2808 13.2313 20.7285 12.7836 20.7285 12.2313C20.7285 11.679 20.2808 11.2313 19.7285 11.2313C19.1762 11.2313 18.7285 11.679 18.7285 12.2313C18.7285 12.7836 19.1762 13.2313 19.7285 13.2313Z" stroke="#98A2B3" stroke-width="2" stroke-linecap="round" stroke-linejoin="round"/>
<path d="M5.72852 13.2313C6.2808 13.2313 6.72852 12.7836 6.72852 12.2313C6.72852 11.679 6.2808 11.2313 5.72852 11.2313C5.17623 11.2313 4.72852 11.679 4.72852 12.2313C4.72852 12.7836 5.17623 13.2313 5.72852 13.2313Z" stroke="#98A2B3" stroke-width="2" stroke-linecap="round" stroke-linejoin="round"/>
<path d="M12.7285 20.2313C13.2808 20.2313 13.7285 19.7836 13.7285 19.2313C13.7285 18.679 13.2808 18.2313 12.7285 18.2313C12.1762 18.2313 11.7285 18.679 11.7285 19.2313C11.7285 19.7836 12.1762 20.2313 12.7285 20.2313Z" stroke="#98A2B3" stroke-width="2" stroke-linecap="round" stroke-linejoin="round"/>
<path d="M19.7285 20.2313C20.2808 20.2313 20.7285 19.7836 20.7285 19.2313C20.7285 18.679 20.2808 18.2313 19.7285 18.2313C19.1762 18.2313 18.7285 18.679 18.7285 19.2313C18.7285 19.7836 19.1762 20.2313 19.7285 20.2313Z" stroke="#98A2B3" stroke-width="2" stroke-linecap="round" stroke-linejoin="round"/>
<path d="M5.72852 20.2313C6.2808 20.2313 6.72852 19.7836 6.72852 19.2313C6.72852 18.679 6.2808 18.2313 5.72852 18.2313C5.17623 18.2313 4.72852 18.679 4.72852 19.2313C4.72852 19.7836 5.17623 20.2313 5.72852 20.2313Z" stroke="#98A2B3" stroke-width="2" stroke-linecap="round" stroke-linejoin="round"/>
</svg>
