<svg xmlns="http://www.w3.org/2000/svg" width="25" height="25" viewBox="0 0 25 25" fill="none" style="&#10;    fill: #fff;&#10;">
<path d="M14.7285 19.2313C14.7285 17.64 14.0964 16.1139 12.9712 14.9887C11.8459 13.8635 10.3198 13.2313 8.72852 13.2313C7.13722 13.2313 5.61109 13.8635 4.48587 14.9887C3.36066 16.1139 2.72852 17.64 2.72852 19.2313" stroke="#fff" stroke-width="1.5" stroke-linecap="round" stroke-linejoin="round"/>
<path d="M8.72852 13.2313C10.9377 13.2313 12.7285 11.4405 12.7285 9.23132C12.7285 7.02218 10.9377 5.23132 8.72852 5.23132C6.51938 5.23132 4.72852 7.02218 4.72852 9.23132C4.72852 11.4405 6.51938 13.2313 8.72852 13.2313Z" stroke="#fff" stroke-width="1.5" stroke-linecap="round" stroke-linejoin="round"/>
<path d="M22.7285 19.2313C22.7285 17.64 22.0964 16.1139 20.9712 14.9887C19.8459 13.8635 18.3198 13.2313 16.7285 13.2313C17.7894 13.2313 18.8068 12.8099 19.5569 12.0598C20.3071 11.3096 20.7285 10.2922 20.7285 9.23132C20.7285 8.17046 20.3071 7.15304 19.5569 6.4029C18.8068 5.65275 17.7894 5.23132 16.7285 5.23132" stroke="#fff" stroke-width="1.5" stroke-linecap="round" stroke-linejoin="round"/>
</svg>