<svg xmlns="http://www.w3.org/2000/svg" width="25" height="25" viewBox="0 0 25 25" fill="none">
<path d="M20.7285 12.2313V8.23132H6.72852C6.19808 8.23132 5.68937 8.02061 5.3143 7.64554C4.93923 7.27046 4.72852 6.76176 4.72852 6.23132C4.72852 5.13132 5.62852 4.23132 6.72852 4.23132H18.7285V8.23132" stroke="#fff" stroke-width="1.5" stroke-linecap="round" stroke-linejoin="round"/>
<path d="M4.72852 6.23132V18.2313C4.72852 19.3313 5.62852 20.2313 6.72852 20.2313H20.7285V16.2313" stroke="#fff" stroke-width="1.5" stroke-linecap="round" stroke-linejoin="round"/>
<path d="M18.7285 12.2313C18.1981 12.2313 17.6894 12.442 17.3143 12.8171C16.9392 13.1922 16.7285 13.7009 16.7285 14.2313C16.7285 15.3313 17.6285 16.2313 18.7285 16.2313H22.7285V12.2313H18.7285Z" stroke="#fff" stroke-width="1.5" stroke-linecap="round" stroke-linejoin="round"/>
</svg>