<svg width="136" height="136" viewBox="0 0 136 136" fill="none" xmlns="http://www.w3.org/2000/svg">
<circle cx="67.958" cy="67.6661" r="67.5" fill="#EFE9FD"/>
<circle cx="67.958" cy="67.6662" r="50" fill="#D5C8FA"/>
<path d="M74.39 62.312L65.7296 70.4919L61.5733 66.2159C61.1125 65.7415 60.3538 65.7307 59.8799 66.1915C59.4055 66.6527 59.3947 67.411 59.8555 67.8854L64.8404 73.0027C65.3036 73.4686 66.052 73.4846 66.5343 73.0383L76.0599 64.0537C76.2913 63.8356 76.4264 63.5343 76.4353 63.2167C76.4442 62.899 76.3264 62.5907 76.1078 62.3599C75.6442 61.878 74.8798 61.8569 74.39 62.312Z" fill="#825EF3"/>
<path d="M67.9641 49.7233C58.0664 49.7233 50.0183 57.7714 50.0183 67.6691C50.0183 77.5672 58.0664 85.6153 67.9641 85.6153C77.8622 85.6153 85.9103 77.5672 85.9103 67.6691C85.9103 57.7714 77.8622 49.7233 67.9641 49.7233ZM67.9641 83.2129C59.3877 83.2129 52.4207 76.2337 52.4207 67.6691C52.4207 59.1044 59.3877 52.1257 67.9641 52.1257C76.5489 52.1257 83.5079 59.0847 83.5079 67.6691C83.5079 76.2534 76.5489 83.2129 67.9641 83.2129Z" fill="#825EF3"/>
<path d="M92.6608 61.0625L93.0573 53.9393C93.085 53.4612 92.8251 53.0122 92.3967 52.7982L86.0542 49.5911L82.8471 43.2486C82.6289 42.824 82.1827 42.5655 81.706 42.588L74.5706 42.9727L68.6246 39.0444C68.2239 38.7803 67.7045 38.7803 67.3033 39.0444L61.3573 42.9727L54.2346 42.5763C53.756 42.5481 53.3074 42.808 53.0935 43.2369L49.8859 49.5793L43.5439 52.7865C43.1188 53.0042 42.8607 53.4504 42.8833 53.9276L43.2793 61.0508L39.3514 66.9968C39.0873 67.3975 39.0873 67.9169 39.3514 68.3181L43.2675 74.2758L42.8711 81.399C42.8434 81.8771 43.1029 82.3261 43.5317 82.5401L49.8742 85.7472L53.0813 92.0897C53.299 92.5148 53.7452 92.7728 54.2224 92.7503L61.3456 92.3538L67.2916 96.2817C67.6899 96.5543 68.2145 96.5543 68.6129 96.2817L74.5588 92.3538L81.682 92.7503C82.1602 92.778 82.6087 92.518 82.8232 92.0897L86.0303 85.7472L92.3727 82.5401C92.7974 82.3219 93.0559 81.8762 93.0334 81.399L92.6369 74.2758L96.5647 68.3298C96.8289 67.9291 96.8289 67.4092 96.5647 67.0085L92.6608 61.0625ZM90.4264 73.2909C90.28 73.5058 90.212 73.7643 90.2345 74.0238L90.6066 80.7622L84.6128 83.7892C84.3843 83.9037 84.1989 84.0895 84.0844 84.318L81.057 90.3118L74.3186 89.9397C74.0605 89.9303 73.8057 89.9969 73.5857 90.1316L67.964 93.8436L62.3427 90.1316C62.1475 89.9998 61.9176 89.9284 61.682 89.9275H61.622L54.8831 90.3001L51.8561 84.3058C51.7416 84.0773 51.5563 83.8919 51.3273 83.7774L45.3213 80.7622L45.6939 74.0238C45.7033 73.7657 45.6362 73.5109 45.5015 73.2909L41.79 67.6691L45.5015 62.0474C45.6484 61.833 45.7164 61.574 45.6939 61.315L45.3213 54.5761L51.3156 51.5491C51.5441 51.4346 51.7294 51.2493 51.8439 51.0208L54.8709 45.0265L61.6098 45.3991C61.8674 45.408 62.1222 45.3414 62.3427 45.2067L67.964 41.4952L73.5857 45.2067C73.8006 45.3536 74.0596 45.4216 74.3186 45.3991L81.057 45.0265L84.0844 51.0208C84.1989 51.2493 84.3843 51.4346 84.6128 51.5491L90.6066 54.5761L90.2345 61.315C90.2251 61.5726 90.2922 61.8274 90.4264 62.0474L94.1384 67.6691L90.4264 73.2909Z" fill="#825EF3"/>
</svg>
