<svg width="135" height="136" viewBox="0 0 135 136" fill="none" xmlns="http://www.w3.org/2000/svg">
<circle cx="67.5068" cy="67.6661" r="67.5" fill="#EFE9FD"/>
<circle cx="67.5069" cy="67.6662" r="50" fill="#D5C8FA"/>
<g clip-path="url(#clip0_2365_4189)">
<path fill-rule="evenodd" clip-rule="evenodd" d="M91.7377 66.3711C91.1705 66.4669 90.7876 67.0045 90.8834 67.5727C91.1094 68.9087 91.2235 70.2529 91.2235 71.5706C91.2235 78.9203 87.9476 85.5544 82.6695 89.9717C81.7477 83.9865 77.4983 79.1861 71.8555 77.4682C74.0989 75.9717 75.5823 73.4219 75.5823 70.5278C75.5823 65.9272 71.8401 62.1859 67.2404 62.1859C62.6407 62.1859 58.8985 65.9272 58.8985 70.5278C58.8985 73.4219 60.3819 75.9717 62.6253 77.4682C56.9825 79.1861 52.7332 83.9865 51.8114 89.9717C46.5332 85.5544 43.2574 78.9203 43.2574 71.5706C43.2574 70.2529 43.3714 68.9087 43.5975 67.5727C43.6932 67.0045 43.3103 66.4669 42.7431 66.3711C42.1627 66.2734 41.6372 66.6583 41.5405 67.2265C41.2961 68.6745 41.1719 70.1368 41.1719 71.5706C41.1719 84.3768 50.3183 95.185 62.9198 97.2705C62.9768 97.2807 63.0348 97.2848 63.0908 97.2848C63.5918 97.2848 64.0338 96.9222 64.1183 96.4131C64.213 95.8449 63.8281 95.3072 63.2599 95.2135C59.7461 94.632 56.5316 93.3035 53.7478 91.419C54.2508 84.3425 60.0666 78.8698 67.2404 78.8698C74.4142 78.8698 80.23 84.3425 80.7331 91.419C77.9493 93.3035 74.7347 94.632 71.221 95.2135C70.6527 95.3072 70.2678 95.8449 70.3625 96.4131C70.4471 96.9222 70.889 97.2848 71.39 97.2848C71.446 97.2848 71.504 97.2807 71.5611 97.2705C84.1626 95.185 93.309 84.3768 93.309 71.5706C93.309 70.1368 93.1847 68.6745 92.9403 67.2265C92.8436 66.6583 92.312 66.2713 91.7377 66.3711ZM60.984 70.5278C60.984 67.0778 63.7904 64.2714 67.2404 64.2714C70.6904 64.2714 73.4969 67.0778 73.4969 70.5278C73.4969 73.9779 70.6904 76.7843 67.2404 76.7843C63.7904 76.7843 60.984 73.9779 60.984 70.5278Z" fill="#825EF3"/>
<path fill-rule="evenodd" clip-rule="evenodd" d="M78.6596 45.4573C78.5364 45.0785 78.2105 44.8035 77.8175 44.7465L71.1547 43.7791L68.1752 37.7406C67.8249 37.0318 66.6559 37.0318 66.3056 37.7406L63.326 43.7791L56.6633 44.7465C56.2702 44.8035 55.9443 45.0785 55.8211 45.4573C55.6989 45.834 55.8008 46.2495 56.0849 46.5265L60.9065 51.2249L59.7681 57.8602C59.7009 58.2533 59.8618 58.6484 60.1825 58.8805C60.5053 59.1147 60.93 59.1494 61.2813 58.96L67.2404 55.8256L73.1995 58.96C73.3522 59.0414 73.5192 59.0801 73.6852 59.0801C73.9011 59.0801 74.116 59.0129 74.2982 58.8805C74.619 58.6484 74.7799 58.2533 74.7127 57.8602L73.5742 51.2249L78.3959 46.5265C78.68 46.2495 78.7818 45.834 78.6596 45.4573ZM71.726 50.1129C71.4806 50.3533 71.3686 50.6974 71.4266 51.0376L72.3003 56.1311L67.7261 53.7259C67.5734 53.6465 67.4074 53.6057 67.2404 53.6057C67.0734 53.6057 66.9074 53.6465 66.7546 53.7259L62.1804 56.1311L63.0541 51.0376C63.1122 50.6974 63.0002 50.3533 62.7548 50.1129L59.0542 46.5082L64.1682 45.7648C64.5083 45.7139 64.8015 45.5021 64.9533 45.1945L67.2404 40.5592L69.5275 45.1945C69.6792 45.5021 69.9725 45.7139 70.3126 45.7648L75.4265 46.5082L71.726 50.1129Z" fill="#825EF3"/>
<path fill-rule="evenodd" clip-rule="evenodd" d="M42.2879 62.2348C42.2207 62.6279 42.3816 63.023 42.7024 63.2552C43.0262 63.4894 43.4518 63.522 43.8011 63.3346L48.4711 60.8785L53.141 63.3346C53.2937 63.4161 53.4607 63.4548 53.6267 63.4548C53.8426 63.4548 54.0575 63.3875 54.2397 63.2552C54.5605 63.023 54.7214 62.6279 54.6542 62.2348L53.7622 57.0354L57.5411 53.3532C57.8252 53.0762 57.927 52.6608 57.8048 52.284C57.6816 51.9052 57.3557 51.6302 56.9627 51.5732L51.7408 50.8156L49.4059 46.0825C49.0556 45.3738 47.8866 45.3738 47.5363 46.0825L45.2013 50.8156L39.9794 51.5732C39.5864 51.6302 39.2605 51.9052 39.1373 52.284C39.0151 52.6608 39.1169 53.0762 39.401 53.3532L43.18 57.0354L42.2879 62.2348ZM42.3704 53.3349L46.0434 52.8013C46.3835 52.7504 46.6768 52.5386 46.8285 52.231L48.4711 48.9012L50.1136 52.231C50.2653 52.5386 50.5586 52.7504 50.8987 52.8013L54.5717 53.3349L51.9139 55.9234C51.6685 56.1637 51.5565 56.5079 51.6146 56.848L52.2418 60.5058L48.9568 58.7787C48.804 58.6993 48.6381 58.6586 48.4711 58.6586C48.3041 58.6586 48.1381 58.6993 47.9853 58.7787L44.7003 60.5058L45.3276 56.848C45.3856 56.5079 45.2736 56.1637 45.0282 55.9234L42.3704 53.3349Z" fill="#825EF3"/>
<path fill-rule="evenodd" clip-rule="evenodd" d="M94.5015 51.5732L89.2796 50.8156L86.9447 46.0825C86.5944 45.3738 85.4254 45.3738 85.0751 46.0825L82.7401 50.8156L77.5183 51.5732C77.1252 51.6302 76.7993 51.9052 76.6761 52.284C76.5539 52.6608 76.6557 53.0762 76.9399 53.3532L80.7188 57.0354L79.8267 62.2348C79.7595 62.6279 79.9204 63.023 80.2412 63.2552C80.564 63.4894 80.9886 63.522 81.3399 63.3346L86.0099 60.8785L90.6798 63.3346C90.8326 63.4161 90.9996 63.4548 91.1655 63.4548C91.3814 63.4548 91.5963 63.3875 91.7786 63.2552C92.0993 63.023 92.2602 62.6279 92.193 62.2348L91.301 57.0354L95.0799 53.3532C95.364 53.0762 95.4658 52.6608 95.3436 52.284C95.2204 51.9052 94.8946 51.6302 94.5015 51.5732ZM89.4528 55.9234C89.2073 56.1637 89.0953 56.5079 89.1534 56.848L89.7806 60.5058L86.4956 58.7787C86.3429 58.6993 86.1769 58.6586 86.0099 58.6586C85.8429 58.6586 85.6769 58.6993 85.5241 58.7787L82.2391 60.5058L82.8664 56.848C82.9244 56.5079 82.8124 56.1637 82.567 55.9234L79.9092 53.3349L83.5822 52.8013C83.9224 52.7504 84.2156 52.5386 84.3674 52.231L86.0099 48.9012L87.6524 52.231C87.8041 52.5386 88.0974 52.7504 88.4375 52.8013L92.1105 53.3349L89.4528 55.9234Z" fill="#825EF3"/>
<path d="M67.2403 97.6392C67.8161 97.6392 68.283 97.1723 68.283 96.5965C68.283 96.0206 67.8161 95.5537 67.2403 95.5537C66.6644 95.5537 66.1975 96.0206 66.1975 96.5965C66.1975 97.1723 66.6644 97.6392 67.2403 97.6392Z" fill="#825EF3"/>
</g>
<defs>
<clipPath id="clip0_2365_4189">
<rect width="62.7513" height="63.7473" fill="white" transform="translate(35.8647 35.6931)"/>
</clipPath>
</defs>
</svg>
