<svg width="135" height="136" viewBox="0 0 135 136" fill="none" xmlns="http://www.w3.org/2000/svg">
<circle cx="67.5068" cy="67.6661" r="67.5" fill="#EFE9FD"/>
<circle cx="67.5069" cy="67.6662" r="50" fill="#D5C8FA"/>
<g clip-path="url(#clip0_2365_4119)">
<path d="M67.2881 49.4332C58.4065 49.4332 51.1504 56.8046 51.1504 65.8271C51.1504 70.5447 53.1821 75.0855 56.607 78.152C59.1612 80.7467 58.929 86.2899 58.8709 86.3489C58.8709 86.6437 58.929 86.8796 59.1612 87.1155C59.3353 87.2924 59.6256 87.4103 59.8578 87.4103H74.6603C74.9506 87.4103 75.1828 87.2924 75.3569 87.1155C75.5311 86.9386 75.6472 86.6437 75.6472 86.3489C75.6472 86.2899 75.3569 80.7467 77.9111 78.152C77.9692 78.093 78.0272 78.034 78.0852 77.975C81.4521 74.8496 83.4258 70.4268 83.4258 65.8271C83.4258 56.8046 76.1696 49.4332 67.2881 49.4332ZM76.576 76.6187C76.5179 76.6777 76.4018 76.7956 76.4018 76.8546C74.1379 79.3314 73.7316 83.4003 73.6735 85.3464H60.8446C60.7866 83.4003 60.3802 79.1545 57.9422 76.6187C54.8655 73.9061 53.066 69.955 53.066 65.7681C53.066 57.8071 59.3934 51.3793 67.23 51.3793C75.0667 51.3793 81.3941 57.8071 81.3941 65.7681C81.3941 69.955 79.6526 73.9061 76.576 76.6187Z" fill="#825EF3"/>
<path d="M67.23 53.6201C66.7076 53.6201 66.2432 54.0919 66.2432 54.6226C66.2432 55.1534 66.7076 55.6251 67.23 55.6251C73.093 55.6251 77.795 60.4607 77.795 66.3578C77.795 66.8885 78.2594 67.3603 78.7818 67.3603C79.3043 67.3603 79.7686 66.8885 79.7686 66.3578C79.8267 59.3403 74.1959 53.6201 67.23 53.6201Z" fill="#825EF3"/>
<path d="M73.6736 88.5308H60.7867C59.4516 88.5308 58.3486 89.6512 58.3486 91.0075C58.3486 92.3639 59.4516 93.4843 60.7867 93.4843H73.6156C75.0088 93.4253 76.1117 92.3639 76.1117 91.0075C76.1117 89.6512 75.0088 88.5308 73.6736 88.5308ZM73.6736 91.4203H60.7867C60.5545 91.4203 60.3223 91.2434 60.3223 90.9486C60.3223 90.6537 60.4965 90.4768 60.7867 90.4768H73.6156C73.8478 90.4768 74.08 90.6537 74.08 90.9486C74.08 91.2434 73.9058 91.4203 73.6736 91.4203Z" fill="#825EF3"/>
<path d="M71.7579 94.4868H62.7022C61.3671 94.4868 60.2642 95.6073 60.2642 96.9636C60.2642 98.3199 61.3671 99.4404 62.7022 99.4404H71.7579C73.093 99.4404 74.196 98.3199 74.196 96.9636C74.196 95.5483 73.093 94.4868 71.7579 94.4868ZM71.7579 97.3764H62.7022C62.47 97.3764 62.2378 97.1995 62.2378 96.9046C62.2378 96.6098 62.412 96.4329 62.7022 96.4329H71.7579C71.9901 96.4329 72.2223 96.6098 72.2223 96.9046C72.2223 97.1995 71.9901 97.3764 71.7579 97.3764Z" fill="#825EF3"/>
<path d="M67.23 44.5387C67.8105 44.5387 68.2168 44.0669 68.2168 43.5362V36.6956C68.2168 36.1648 67.7524 35.6931 67.23 35.6931C66.7076 35.6931 66.2432 36.1648 66.2432 36.6956V43.5362C66.2432 44.0669 66.7076 44.5387 67.23 44.5387Z" fill="#825EF3"/>
<path d="M83.6581 40.7645C83.1937 40.4107 82.6132 40.5876 82.3229 41.0004L78.6078 46.6616C78.2595 47.1334 78.3756 47.7821 78.84 48.0769C79.0141 48.1948 79.1883 48.2538 79.3624 48.2538C79.7107 48.2538 80.001 48.0769 80.1751 47.7821L83.8903 42.1209C84.2386 41.7081 84.1225 41.0594 83.6581 40.7645Z" fill="#825EF3"/>
<path d="M55.4461 48.0179C55.6203 48.0179 55.7944 47.9589 55.9686 47.841C56.433 47.5461 56.5491 46.8975 56.2588 46.4257L52.6598 40.7055C52.3695 40.2338 51.731 40.1158 51.2666 40.4107C50.8022 40.7055 50.6861 41.3542 50.9764 41.826L54.5754 47.5461C54.8076 47.9 55.0979 48.0179 55.4461 48.0179Z" fill="#825EF3"/>
<path d="M48.4222 54.2688L42.5592 51.0254C42.0948 50.7895 41.4562 50.9664 41.2241 51.4382C40.9338 51.91 41.108 52.5587 41.6304 52.7945L47.4934 56.0379C47.6675 56.0969 47.7836 56.1559 47.9578 56.1559C48.3061 56.1559 48.6544 55.979 48.8285 55.6251C49.0607 55.1534 48.8866 54.5047 48.4222 54.2688Z" fill="#825EF3"/>
<path d="M93.2942 51.4382C93.062 50.9664 92.4235 50.7895 91.9591 51.0254L86.038 54.2688C85.5737 54.5047 85.3995 55.1534 85.6317 55.6251C85.8058 55.979 86.1541 56.1559 86.5024 56.1559C86.6766 56.1559 86.8507 56.0969 86.9668 56.0379L92.8879 52.7945C93.3523 52.5587 93.5264 51.91 93.2942 51.4382Z" fill="#825EF3"/>
</g>
<defs>
<clipPath id="clip0_2365_4119">
<rect width="62.7513" height="63.7473" fill="white" transform="translate(35.8647 35.6931)"/>
</clipPath>
</defs>
</svg>
